<svg version="1.1" id="Layer_1" xmlns="http://www.w3.org/2000/svg" xmlns:xlink="http://www.w3.org/1999/xlink" x="0px" y="0px"
	 width="100%" viewBox="0 0 174 245" enable-background="new 0 0 174 245" xml:space="preserve">
<path fill="#000000" opacity="1.000000" stroke="none" 
	d="
M175.000000,86.000000 
	C175.000000,139.666672 175.000000,192.833328 175.000000,246.000000 
	C117.000000,246.000000 59.000000,246.000000 1.000000,246.000000 
	C1.000000,164.333328 1.000000,82.666664 1.000000,1.000000 
	C59.000000,1.000000 117.000000,1.000000 175.000000,1.000000 
	C175.000000,29.166666 175.000000,57.333332 175.000000,86.000000 
M137.009735,30.999765 
	C137.009735,30.999765 137.082520,30.968239 137.007065,30.344254 
	C136.687622,29.861563 136.368195,29.378872 135.892105,28.450737 
	C135.707703,28.166864 135.447418,28.005091 135.006714,27.296095 
	C133.714462,25.839190 132.422195,24.382282 130.856049,22.352041 
	C129.616882,21.214334 128.377716,20.076628 126.846626,18.345337 
	C125.603142,17.546179 124.359657,16.747021 122.918747,15.449800 
	C122.625916,15.257762 122.333084,15.065724 121.873131,14.407890 
	C121.648926,14.078930 121.356194,13.998074 120.358231,13.850966 
	C118.259583,12.861889 116.160934,11.872810 113.693909,10.246552 
	C109.861435,9.167504 106.028954,8.088457 101.755875,6.344436 
	C100.185143,6.187590 98.614410,6.030744 96.545059,5.178096 
	C70.394608,5.120163 44.244152,5.055342 18.093676,5.041126 
	C17.387352,5.040741 16.680731,5.587195 15.163659,5.987784 
	C13.691720,6.393297 12.219781,6.798810 10.241885,7.342047 
	C9.811404,7.869895 9.380923,8.397743 8.359042,9.178787 
	C7.612771,10.175675 6.866499,11.172564 5.275855,12.384840 
	C5.235370,22.590958 5.194884,32.797077 5.025598,43.932156 
	C5.016599,91.166977 4.996942,138.401825 5.050585,185.636566 
	C5.052176,187.038330 5.823818,188.439209 6.777744,190.182251 
	C8.409842,191.419708 10.041940,192.657166 12.218501,194.640305 
	C23.144028,194.706833 34.069553,194.773376 45.923428,194.981796 
	C56.615410,194.930054 67.307388,194.878296 78.926796,194.970825 
	C89.286133,194.980820 99.645676,195.024155 110.004555,194.959869 
	C111.347076,194.951553 112.686157,194.387436 114.890800,194.005508 
	C117.942238,193.575211 120.993683,193.144928 124.516556,192.759415 
	C124.801544,192.575195 124.965561,192.314758 125.688393,191.985260 
	C126.131599,191.905502 126.574806,191.825745 127.719658,191.621780 
	C128.815582,191.056396 129.941833,190.542282 131.001465,189.915543 
	C133.678909,188.331863 136.326385,186.697540 139.689346,184.969635 
	C141.823151,183.319550 143.956955,181.669464 146.678696,179.962021 
	C147.121918,179.664429 147.565125,179.366852 148.041321,179.047806 
	C148.041321,179.047806 148.072708,179.022827 148.771927,178.942596 
	C150.073013,177.562576 151.594955,176.330292 152.634827,174.775574 
	C156.112518,169.576019 159.417801,164.261154 163.142258,158.332047 
	C172.661819,137.451279 170.900513,117.345573 158.724869,97.312286 
	C154.033112,89.658607 147.282242,84.099831 139.957687,78.547401 
	C139.957687,78.547401 139.840881,78.098274 140.183746,77.421875 
	C141.471008,72.649529 142.758286,67.877182 144.705612,62.573940 
	C144.742905,59.383003 144.780197,56.192062 144.951004,52.195175 
	C143.678680,47.758682 142.406372,43.322193 141.041962,38.301289 
	C140.738525,37.844433 140.435074,37.387581 140.034866,36.248993 
	C139.392487,35.150024 138.750092,34.051056 138.015671,32.337360 
	C137.697098,31.871037 137.378525,31.404711 137.009735,30.999765 
M21.976305,229.713379 
	C21.619978,228.456665 20.842823,227.152374 20.978609,225.951294 
	C21.642323,220.080460 20.008554,218.102463 14.012030,218.010910 
	C12.093074,217.981613 10.173294,218.006317 8.193298,218.006317 
	C8.193298,225.251038 8.193298,231.957916 8.193298,239.051025 
	C13.190249,238.223129 18.678499,241.243057 22.861879,236.351028 
	C23.523294,237.179153 24.184708,238.007278 25.678135,239.010941 
	C27.667006,238.157623 29.655874,237.304306 32.086082,236.261642 
	C34.838020,241.792999 40.906639,238.048203 45.737637,239.123550 
	C48.201050,234.402527 51.763866,233.627899 55.072899,236.441971 
	C56.797085,237.908264 59.157040,238.626938 61.229816,239.683319 
	C61.488575,239.226486 61.747337,238.769638 62.006096,238.312805 
	C59.631031,232.440247 57.391502,226.506073 54.772858,220.744217 
	C54.211937,219.510025 52.185627,218.082458 50.999592,218.215591 
	C49.608566,218.371765 47.845837,219.877930 47.207630,221.247452 
	C44.832348,226.344604 42.852295,231.625946 40.558266,237.243698 
	C38.682247,234.771301 37.115456,232.706451 35.548668,230.641602 
	C36.101833,230.670685 36.655003,230.699768 37.208168,230.728851 
	C37.741829,227.752274 39.173550,224.581680 38.583012,221.847946 
	C37.836151,218.390503 34.320210,217.691879 30.894299,217.981781 
	C28.915293,218.149246 26.918829,218.110428 24.088867,218.083878 
	C23.534061,222.135254 22.979254,226.186646 21.976305,229.713379 
M80.115631,221.861832 
	C80.294395,226.593826 80.486290,231.325363 80.646400,236.057983 
	C80.726860,238.436325 81.903656,239.442169 84.244232,239.027298 
	C86.266449,238.668854 87.717934,238.279343 86.391594,235.484055 
	C85.838654,234.318741 86.970009,232.354263 87.484657,230.099838 
	C91.633690,233.807724 92.316345,241.264099 99.437561,238.736877 
	C99.437561,231.928619 99.437561,225.133865 99.437561,218.290253 
	C97.585983,218.290253 95.858391,218.290253 94.479187,218.290253 
	C93.935234,221.170624 93.457642,223.699600 92.780617,227.284607 
	C88.811584,222.774734 88.055878,215.973755 80.121689,218.018951 
	C75.298813,216.728180 72.426987,220.053360 69.250397,223.115433 
	C67.785202,217.709442 64.421867,217.181473 59.794292,218.599304 
	C62.125210,221.774216 64.530090,224.592606 66.369774,227.741241 
	C67.345230,229.410736 67.975906,231.763824 67.655464,233.616913 
	C66.737175,238.927322 66.907043,239.279434 73.127655,238.523087 
	C71.853722,231.354675 74.230888,225.467712 80.115631,221.861832 
M102.254082,218.429932 
	C102.020454,225.178833 101.785103,231.927704 101.613708,238.678192 
	C101.613022,238.705215 102.530174,238.755539 103.909737,239.015869 
	C109.496941,239.025726 115.700256,240.690201 118.033051,233.040314 
	C125.223907,239.132416 125.223907,239.132416 129.726501,238.609421 
	C127.363136,235.265457 123.602943,232.221436 123.282631,228.850571 
	C122.963432,225.491348 126.094574,221.804260 127.712906,218.260925 
	C127.495010,217.859085 127.277107,217.457260 127.059212,217.055435 
	C124.177582,218.510071 121.295944,219.964706 117.926201,221.665756 
	C116.179573,219.676743 113.968834,215.865341 109.183517,218.842880 
	C111.174866,221.890320 113.172264,224.947021 115.319893,228.233627 
	C112.889427,231.299545 110.501114,234.312302 108.112801,237.325058 
	C107.719376,237.122986 107.325958,236.920914 106.932533,236.718842 
	C106.932533,230.512085 106.932533,224.305328 106.932533,217.921570 
	C105.318825,218.052872 104.172920,218.146103 102.254082,218.429932 
M162.443771,219.952606 
	C160.888031,219.136673 159.332291,218.320740 156.693161,216.936615 
	C156.693161,224.943756 156.693161,231.347321 156.693161,239.047287 
	C153.528625,231.348999 150.815399,224.748642 147.768753,217.337128 
	C145.862640,218.201843 143.191254,218.532806 142.514786,219.871704 
	C139.438538,225.960358 136.923920,232.332764 134.113998,238.818405 
	C137.773895,239.118057 140.549133,239.745193 142.185165,235.838715 
	C142.544128,234.981552 148.518265,234.933212 149.007126,235.931793 
	C151.558319,241.143204 155.896042,238.448349 159.386307,238.948944 
	C162.328751,239.370956 163.144440,238.296356 162.596359,234.842972 
	C161.869812,230.265366 162.648773,225.448822 162.443771,219.952606 
z"/>
</svg>